<svg width="31" height="31" viewBox="0 0 31 31" fill="none" xmlns="http://www.w3.org/2000/svg">
<path d="M22.9984 6.96561L22.9984 24.9656C22.9979 25.4959 22.787 26.0043 22.412 26.3792C22.0371 26.7542 21.5287 26.9651 20.9984 26.9656L16.9984 26.9656C16.4681 26.9651 15.9597 26.7542 15.5848 26.3792C15.2098 26.0043 14.9989 25.4959 14.9984 24.9656L14.9984 6.96561C14.9989 6.43534 15.2098 5.92694 15.5848 5.55198C15.9597 5.17702 16.4681 4.96614 16.9984 4.96561L20.9984 4.96561C21.5287 4.96614 22.0371 5.17702 22.412 5.55198C22.787 5.92694 22.9979 6.43534 22.9984 6.96561ZM16.9984 24.9656L20.9984 24.9656L20.9984 6.96561L16.9984 6.96561L16.9984 24.9656ZM16.9984 6.96561L16.9984 24.9656C16.9979 25.4959 16.787 26.0043 16.412 26.3792C16.0371 26.7542 15.5287 26.9651 14.9984 26.9656L10.9984 26.9656C10.4681 26.9651 9.95974 26.7542 9.58478 26.3792C9.20983 26.0043 8.99894 25.4959 8.99841 24.9656L8.99841 6.96559C8.99894 6.43532 9.20983 5.92692 9.58478 5.55196C9.95974 5.177 10.4681 4.96612 10.9984 4.96559L14.9984 4.96559C15.5287 4.96612 16.0371 5.177 16.412 5.55196C16.787 5.92692 16.9979 6.43534 16.9984 6.96561ZM10.9984 24.9656L14.9984 24.9656L14.9984 6.96561L10.9984 6.96559L10.9984 24.9656ZM10.9984 6.96559L10.9984 24.9656C10.9979 25.4959 10.787 26.0043 10.412 26.3792C10.0371 26.7542 9.52868 26.9651 8.99841 26.9656L4.99841 26.9656C4.46814 26.9651 3.95974 26.7542 3.58478 26.3792C3.20983 26.0043 2.99894 25.4959 2.99841 24.9656L2.99841 6.96559C2.99894 6.43532 3.20983 5.92692 3.58478 5.55196C3.95974 5.177 4.46814 4.96612 4.99841 4.96559L8.99841 4.96559C9.52868 4.96612 10.0371 5.177 10.412 5.55196C10.787 5.92692 10.9979 6.43532 10.9984 6.96559ZM4.99841 24.9656L8.99841 24.9656L8.99841 6.96559L4.99841 6.96559L4.99841 24.9656Z" fill="white"/>
<path d="M28.9984 6.96583L28.9984 24.9658C28.9979 25.4961 28.787 26.0045 28.412 26.3794C28.0371 26.7544 27.5287 26.9653 26.9984 26.9658L22.9984 26.9658C22.4681 26.9653 21.9597 26.7544 21.5848 26.3794C21.2098 26.0045 20.9989 25.4959 20.9984 24.9656L20.9984 6.96561C20.9989 6.43534 21.2098 5.92716 21.5848 5.5522C21.9597 5.17724 22.4681 4.96636 22.9984 4.96583L26.9984 4.96583C27.5287 4.96636 28.0371 5.17724 28.412 5.5522C28.787 5.92716 28.9979 6.43556 28.9984 6.96583ZM22.9984 24.9656L26.9984 24.9658L26.9984 6.96583L22.9984 6.96561L22.9984 24.9656Z" fill="white"/>
</svg>
