<svg width="193" height="53" viewBox="0 0 193 53" fill="none" xmlns="http://www.w3.org/2000/svg">
<rect x="0.5" y="0.5" width="192" height="52" rx="9.5" fill="#2A3647"/>
<path d="M24.1019 18.7273V34H21.3129L14.6683 24.3874H14.5565V34H11.3274V18.7273H14.1612L20.7536 28.3324H20.8878V18.7273H24.1019ZM31.9303 34.2237C30.752 34.2237 29.7378 33.9851 28.8877 33.5078C28.0425 33.0256 27.3912 32.3445 26.9339 31.4645C26.4765 30.5795 26.2478 29.533 26.2478 28.3249C26.2478 27.1467 26.4765 26.1126 26.9339 25.2227C27.3912 24.3327 28.0351 23.6392 28.8653 23.142C29.7006 22.6449 30.68 22.3963 31.8035 22.3963C32.5592 22.3963 33.2627 22.5181 33.914 22.7617C34.5702 23.0004 35.142 23.3608 35.6292 23.843C36.1214 24.3253 36.5042 24.9318 36.7776 25.6626C37.051 26.3885 37.1878 27.2386 37.1878 28.2131V29.0856H27.5155V27.1168H34.1974C34.1974 26.6594 34.0979 26.2543 33.8991 25.9013C33.7002 25.5483 33.4243 25.2724 33.0713 25.0735C32.7233 24.8697 32.3181 24.7678 31.8557 24.7678C31.3735 24.7678 30.9459 24.8796 30.5731 25.1033C30.2052 25.3221 29.9168 25.6179 29.708 25.9908C29.4992 26.3587 29.3923 26.7688 29.3873 27.2212V29.093C29.3873 29.6598 29.4917 30.1495 29.7006 30.5621C29.9143 30.9748 30.2151 31.293 30.6029 31.5167C30.9907 31.7404 31.4506 31.8523 31.9825 31.8523C32.3355 31.8523 32.6586 31.8026 32.952 31.7031C33.2453 31.6037 33.4964 31.4545 33.7052 31.2557C33.914 31.0568 34.0731 30.8132 34.1824 30.5249L37.1207 30.7188C36.9715 31.4247 36.6657 32.0412 36.2034 32.5682C35.746 33.0902 35.1544 33.4979 34.4285 33.7912C33.7077 34.0795 32.8749 34.2237 31.9303 34.2237ZM41.4385 34L38.3213 22.5455H41.5354L43.3103 30.2415H43.4147L45.2641 22.5455H48.4186L50.2979 30.1967H50.3948L52.1398 22.5455H55.3465L52.2368 34H48.8735L46.9047 26.7962H46.7631L44.7943 34H41.4385ZM67.077 34.2237C65.9037 34.2237 64.8944 33.9751 64.0493 33.478C63.2091 32.9759 62.5628 32.2798 62.1104 31.3899C61.6629 30.5 61.4392 29.4759 61.4392 28.3175C61.4392 27.1442 61.6654 26.1151 62.1178 25.2301C62.5752 24.3402 63.224 23.6467 64.0642 23.1495C64.9044 22.6474 65.9037 22.3963 67.0621 22.3963C68.0613 22.3963 68.9363 22.5778 69.6871 22.9407C70.4378 23.3036 71.0319 23.8132 71.4694 24.4695C71.9069 25.1257 72.148 25.8963 72.1927 26.7812H69.1949C69.1104 26.2095 68.8866 25.7496 68.5237 25.4016C68.1657 25.0487 67.6959 24.8722 67.1143 24.8722C66.6221 24.8722 66.192 25.0064 65.8241 25.2749C65.4612 25.5384 65.1778 25.9237 64.974 26.4308C64.7702 26.9379 64.6682 27.5518 64.6682 28.2727C64.6682 29.0036 64.7677 29.625 64.9665 30.1371C65.1704 30.6491 65.4562 31.0394 65.8241 31.3079C66.192 31.5763 66.6221 31.7106 67.1143 31.7106C67.4772 31.7106 67.8028 31.636 68.0912 31.4869C68.3845 31.3377 68.6256 31.1214 68.8145 30.8381C69.0084 30.5497 69.1352 30.2042 69.1949 29.8015H72.1927C72.143 30.6765 71.9044 31.4471 71.4768 32.1133C71.0542 32.7745 70.4701 33.2915 69.7243 33.6644C68.9786 34.0373 68.0961 34.2237 67.077 34.2237ZM79.4022 34.2237C78.2438 34.2237 77.242 33.9776 76.3968 33.4854C75.5566 32.9883 74.9078 32.2972 74.4505 31.4123C73.9931 30.5224 73.7644 29.4908 73.7644 28.3175C73.7644 27.1342 73.9931 26.1001 74.4505 25.2152C74.9078 24.3253 75.5566 23.6342 76.3968 23.142C77.242 22.6449 78.2438 22.3963 79.4022 22.3963C80.5605 22.3963 81.5598 22.6449 82.4 23.142C83.2452 23.6342 83.8965 24.3253 84.3539 25.2152C84.8113 26.1001 85.04 27.1342 85.04 28.3175C85.04 29.4908 84.8113 30.5224 84.3539 31.4123C83.8965 32.2972 83.2452 32.9883 82.4 33.4854C81.5598 33.9776 80.5605 34.2237 79.4022 34.2237ZM79.4171 31.7628C79.9441 31.7628 80.3841 31.6136 80.737 31.3153C81.09 31.0121 81.356 30.5994 81.535 30.0774C81.7189 29.5554 81.8109 28.9613 81.8109 28.2951C81.8109 27.6289 81.7189 27.0348 81.535 26.5128C81.356 25.9908 81.09 25.5781 80.737 25.2749C80.3841 24.9716 79.9441 24.82 79.4171 24.82C78.8851 24.82 78.4377 24.9716 78.0748 25.2749C77.7168 25.5781 77.4458 25.9908 77.2619 26.5128C77.0829 27.0348 76.9934 27.6289 76.9934 28.2951C76.9934 28.9613 77.0829 29.5554 77.2619 30.0774C77.4458 30.5994 77.7168 31.0121 78.0748 31.3153C78.4377 31.6136 78.8851 31.7628 79.4171 31.7628ZM90.2825 27.3778V34H87.1056V22.5455H90.1333V24.5664H90.2676C90.5211 23.9002 90.9462 23.3732 91.5428 22.9854C92.1394 22.5927 92.8627 22.3963 93.7129 22.3963C94.5083 22.3963 95.2019 22.5703 95.7935 22.9183C96.3851 23.2663 96.845 23.7635 97.1731 24.4098C97.5012 25.0511 97.6653 25.8168 97.6653 26.7067V34H94.4885V27.2734C94.4934 26.5724 94.3145 26.0256 93.9515 25.6328C93.5886 25.2351 93.089 25.0362 92.4526 25.0362C92.025 25.0362 91.6472 25.1282 91.3191 25.3121C90.9959 25.4961 90.7424 25.7646 90.5584 26.1175C90.3794 26.4656 90.2875 26.8857 90.2825 27.3778ZM106.262 22.5455V24.9318H99.3637V22.5455H106.262ZM100.93 19.8011H104.107V30.4801C104.107 30.7734 104.151 31.0021 104.241 31.1662C104.33 31.3253 104.455 31.4371 104.614 31.5018C104.778 31.5664 104.967 31.5987 105.18 31.5987C105.33 31.5987 105.479 31.5863 105.628 31.5614C105.777 31.5316 105.891 31.5092 105.971 31.4943L106.471 33.8583C106.312 33.908 106.088 33.9652 105.799 34.0298C105.511 34.0994 105.161 34.1417 104.748 34.1566C103.982 34.1864 103.311 34.0845 102.734 33.8509C102.163 33.6172 101.718 33.2543 101.4 32.7621C101.081 32.2699 100.925 31.6484 100.93 30.8977V19.8011ZM111.598 34.2163C110.867 34.2163 110.215 34.0895 109.644 33.8359C109.072 33.5774 108.62 33.1971 108.286 32.695C107.958 32.1879 107.794 31.5565 107.794 30.8008C107.794 30.1644 107.911 29.63 108.145 29.1974C108.378 28.7649 108.697 28.4169 109.099 28.1534C109.502 27.8899 109.959 27.6911 110.472 27.5568C110.989 27.4226 111.53 27.3281 112.097 27.2734C112.763 27.2038 113.3 27.1392 113.708 27.0795C114.116 27.0149 114.411 26.9205 114.595 26.7962C114.779 26.6719 114.871 26.4879 114.871 26.2443V26.1996C114.871 25.7273 114.722 25.3619 114.424 25.1033C114.131 24.8448 113.713 24.7156 113.171 24.7156C112.599 24.7156 112.144 24.8423 111.806 25.0959C111.468 25.3445 111.245 25.6577 111.135 26.0355L108.197 25.7969C108.346 25.1009 108.639 24.4993 109.077 23.9922C109.514 23.4801 110.079 23.0874 110.77 22.8139C111.466 22.5355 112.271 22.3963 113.186 22.3963C113.822 22.3963 114.431 22.4709 115.013 22.62C115.6 22.7692 116.119 23.0004 116.572 23.3136C117.029 23.6268 117.389 24.0295 117.653 24.5217C117.916 25.0089 118.048 25.593 118.048 26.2741V34H115.035V32.4116H114.946C114.762 32.7695 114.516 33.0852 114.208 33.3587C113.899 33.6271 113.529 33.8384 113.097 33.9925C112.664 34.1417 112.164 34.2163 111.598 34.2163ZM112.507 32.0238C112.975 32.0238 113.387 31.9318 113.745 31.7479C114.103 31.5589 114.384 31.3054 114.588 30.9872C114.792 30.669 114.894 30.3086 114.894 29.9059V28.6903C114.794 28.755 114.658 28.8146 114.484 28.8693C114.315 28.919 114.123 28.9663 113.909 29.011C113.696 29.0508 113.482 29.0881 113.268 29.1229C113.054 29.1527 112.86 29.18 112.686 29.2049C112.313 29.2596 111.988 29.3466 111.709 29.4659C111.431 29.5852 111.215 29.7468 111.061 29.9506C110.907 30.1495 110.829 30.3981 110.829 30.6964C110.829 31.1289 110.986 31.4595 111.299 31.6882C111.617 31.9119 112.02 32.0238 112.507 32.0238ZM125.688 34.2237C124.515 34.2237 123.506 33.9751 122.661 33.478C121.82 32.9759 121.174 32.2798 120.722 31.3899C120.274 30.5 120.051 29.4759 120.051 28.3175C120.051 27.1442 120.277 26.1151 120.729 25.2301C121.187 24.3402 121.835 23.6467 122.676 23.1495C123.516 22.6474 124.515 22.3963 125.673 22.3963C126.673 22.3963 127.548 22.5778 128.298 22.9407C129.049 23.3036 129.643 23.8132 130.081 24.4695C130.518 25.1257 130.759 25.8963 130.804 26.7812H127.806C127.722 26.2095 127.498 25.7496 127.135 25.4016C126.777 25.0487 126.307 24.8722 125.726 24.8722C125.233 24.8722 124.803 25.0064 124.435 25.2749C124.073 25.5384 123.789 25.9237 123.585 26.4308C123.381 26.9379 123.28 27.5518 123.28 28.2727C123.28 29.0036 123.379 29.625 123.578 30.1371C123.782 30.6491 124.068 31.0394 124.435 31.3079C124.803 31.5763 125.233 31.7106 125.726 31.7106C126.089 31.7106 126.414 31.636 126.703 31.4869C126.996 31.3377 127.237 31.1214 127.426 30.8381C127.62 30.5497 127.747 30.2042 127.806 29.8015H130.804C130.754 30.6765 130.516 31.4471 130.088 32.1133C129.666 32.7745 129.081 33.2915 128.336 33.6644C127.59 34.0373 126.707 34.2237 125.688 34.2237ZM138.931 22.5455V24.9318H132.033V22.5455H138.931ZM133.599 19.8011H136.776V30.4801C136.776 30.7734 136.82 31.0021 136.91 31.1662C136.999 31.3253 137.124 31.4371 137.283 31.5018C137.447 31.5664 137.636 31.5987 137.849 31.5987C137.999 31.5987 138.148 31.5863 138.297 31.5614C138.446 31.5316 138.56 31.5092 138.64 31.4943L139.14 33.8583C138.98 33.908 138.757 33.9652 138.468 34.0298C138.18 34.0994 137.83 34.1417 137.417 34.1566C136.651 34.1864 135.98 34.0845 135.403 33.8509C134.832 33.6172 134.387 33.2543 134.069 32.7621C133.75 32.2699 133.594 31.6484 133.599 30.8977V19.8011Z" fill="white"/>
<path d="M162.748 27.8502C161.145 27.8502 159.579 27.3751 158.247 26.4848C156.914 25.5946 155.876 24.3293 155.263 22.8489C154.65 21.3686 154.489 19.7396 154.802 18.168C155.114 16.5965 155.886 15.1529 157.019 14.0199C158.152 12.8869 159.596 12.1152 161.167 11.8026C162.739 11.49 164.368 11.6505 165.848 12.2637C167.328 12.8769 168.594 13.9153 169.484 15.2476C170.374 16.5799 170.849 18.1462 170.849 19.7486C170.844 21.8958 169.989 23.9537 168.471 25.4721C166.953 26.9904 164.895 27.8455 162.748 27.8502ZM162.748 13.4473C161.501 13.4473 160.283 13.8169 159.247 14.5093C158.211 15.2017 157.403 16.1858 156.926 17.3372C156.449 18.4886 156.324 19.7556 156.567 20.9779C156.811 22.2002 157.411 23.323 158.292 24.2043C159.173 25.0855 160.296 25.6856 161.518 25.9288C162.741 26.1719 164.008 26.0471 165.159 25.5702C166.31 25.0933 167.295 24.2856 167.987 23.2494C168.679 22.2131 169.049 20.9949 169.049 19.7486C169.049 18.0774 168.385 16.4746 167.203 15.2929C166.022 14.1112 164.419 13.4473 162.748 13.4473Z" fill="white"/>
<path d="M169.048 41.353H150L150.162 40.3088C150.559 37.1625 152.074 34.2639 154.43 32.142C156.787 30.02 159.828 28.8163 162.999 28.7505C164.638 28.7361 166.265 29.0419 167.788 29.6507C167.901 29.6936 168.004 29.7589 168.092 29.8428C168.179 29.9267 168.249 30.0273 168.296 30.1387C168.344 30.2501 168.369 30.37 168.369 30.4911C168.369 30.6123 168.345 30.7322 168.297 30.8438C168.25 30.9553 168.181 31.0562 168.094 31.1403C168.006 31.2244 167.903 31.29 167.79 31.3333C167.677 31.3765 167.556 31.3965 167.435 31.392C167.314 31.3875 167.195 31.3586 167.085 31.307C165.791 30.7654 164.402 30.484 162.999 30.4788C160.447 30.5424 157.992 31.4661 156.031 33.1C154.07 34.734 152.719 36.9824 152.196 39.4806H169.102C169.341 39.4806 169.57 39.5755 169.738 39.7443C169.907 39.9131 170.002 40.1421 170.002 40.3808C170.002 40.6195 169.907 40.8485 169.738 41.0173C169.57 41.1861 169.341 41.281 169.102 41.281L169.048 41.353Z" fill="white"/>
<path d="M175.799 26.9496C174.408 26.9506 173.048 27.354 171.882 28.1111C170.716 28.8683 169.794 29.9468 169.227 31.2164C168.807 32.1374 168.592 33.1387 168.597 34.151C168.597 35.5753 169.02 36.9677 169.811 38.1519C170.602 39.3362 171.727 40.2592 173.043 40.8043C174.359 41.3493 175.807 41.492 177.204 41.2141C178.601 40.9362 179.884 40.2503 180.891 39.2432C181.898 38.2361 182.584 36.9529 182.862 35.556C183.14 34.159 182.997 32.711 182.452 31.3952C181.907 30.0793 180.984 28.9546 179.8 28.1632C178.615 27.3719 177.223 26.9496 175.799 26.9496ZM179.399 35.1232H176.771V37.7517C176.771 38.0096 176.668 38.2569 176.486 38.4392C176.304 38.6215 176.057 38.7239 175.799 38.7239C175.541 38.7239 175.294 38.6215 175.111 38.4392C174.929 38.2569 174.826 38.0096 174.826 37.7517V35.0512H172.198C172.07 35.0512 171.944 35.0261 171.826 34.9772C171.708 34.9283 171.601 34.8567 171.511 34.7665C171.42 34.6762 171.349 34.569 171.3 34.4511C171.251 34.3331 171.226 34.2067 171.226 34.079C171.225 33.9055 171.271 33.735 171.36 33.5859C171.449 33.4368 171.577 33.3147 171.73 33.2328C171.869 33.1429 172.033 33.0989 172.198 33.1068H174.826V30.5503C174.826 30.2925 174.929 30.0452 175.111 29.8629C175.294 29.6805 175.541 29.5781 175.799 29.5781C176.057 29.5781 176.304 29.6805 176.486 29.8629C176.668 30.0452 176.771 30.2925 176.771 30.5503V33.2508H179.399C179.657 33.2508 179.905 33.3533 180.087 33.5356C180.269 33.7179 180.372 33.9652 180.372 34.223C180.372 34.4809 180.269 34.7282 180.087 34.9105C179.905 35.0928 179.657 35.1952 179.399 35.1952V35.1232Z" fill="white"/>
<rect x="0.5" y="0.5" width="192" height="52" rx="9.5" stroke="#2A3647"/>
</svg>
