<svg width="31" height="31" viewBox="0 0 31 31" fill="none" xmlns="http://www.w3.org/2000/svg">
<path d="M10.5817 24.769H21.4151V24.494C20.6567 23.8523 19.8172 23.3713 18.8963 23.0508C17.9755 22.7296 17.0095 22.569 15.9984 22.569C14.9873 22.569 14.0213 22.7296 13.1005 23.0508C12.1797 23.3713 11.3401 23.8523 10.5817 24.494V24.769ZM8.41508 23.504C9.39008 22.5323 10.5232 21.7667 11.8146 21.2072C13.1052 20.6484 14.4998 20.369 15.9984 20.369C17.497 20.369 18.892 20.6484 20.1833 21.2072C21.4739 21.7667 22.6067 22.5323 23.5817 23.504V9.36899H8.41508V23.504ZM15.9984 18.169C14.9512 18.169 14.0574 17.7932 13.3172 17.0415C12.5769 16.2898 12.2067 15.3823 12.2067 14.319C12.2067 13.2557 12.5769 12.3482 13.3172 11.5965C14.0574 10.8448 14.9512 10.469 15.9984 10.469C17.0456 10.469 17.9394 10.8448 18.6797 11.5965C19.4199 12.3482 19.7901 13.2557 19.7901 14.319C19.7901 15.3823 19.4199 16.2898 18.6797 17.0415C17.9394 17.7932 17.0456 18.169 15.9984 18.169ZM15.9984 15.969C16.4498 15.969 16.8333 15.8084 17.1489 15.4872C17.4652 15.1667 17.6234 14.7773 17.6234 14.319C17.6234 13.8607 17.4652 13.4713 17.1489 13.1508C16.8333 12.8296 16.4498 12.669 15.9984 12.669C15.547 12.669 15.1635 12.8296 14.8479 13.1508C14.5316 13.4713 14.3734 13.8607 14.3734 14.319C14.3734 14.7773 14.5316 15.1667 14.8479 15.4872C15.1635 15.8084 15.547 15.969 15.9984 15.969ZM7.24841 26.969C6.69613 26.969 6.24841 26.5213 6.24841 25.969V8.169C6.24841 7.61671 6.69613 7.16899 7.24841 7.16899H9.49841V5.96899C9.49841 5.41671 9.94613 4.96899 10.4984 4.96899H10.6651C11.2174 4.96899 11.6651 5.41671 11.6651 5.96899V7.16899H20.3317V5.96899C20.3317 5.41671 20.7795 4.96899 21.3317 4.96899H21.4984C22.0507 4.96899 22.4984 5.41671 22.4984 5.96899V7.16899H24.7484C25.3007 7.16899 25.7484 7.61671 25.7484 8.16899V25.969C25.7484 26.5213 25.3007 26.969 24.7484 26.969H7.24841Z" fill="#CDCDCD"/>
</svg>
