<?xml version="1.0" encoding="UTF-8" standalone="no"?>
<!DOCTYPE svg PUBLIC "-//W3C//DTD SVG 1.1//EN" "http://www.w3.org/Graphics/SVG/1.1/DTD/svg11.dtd">
<!-- Created with Vectornator (http://vectornator.io/) -->
<svg height="100%" stroke-miterlimit="10" style="fill-rule:nonzero;clip-rule:evenodd;stroke-linecap:round;stroke-linejoin:round;" version="1.1" viewBox="0 0 18 7" width="100%" xml:space="preserve" xmlns="http://www.w3.org/2000/svg" xmlns:vectornator="http://vectornator.io" xmlns:xlink="http://www.w3.org/1999/xlink">
<defs/>
<g id="Untitled" vectornator:layerName="Untitled">
<path d="M16.5685 6.66658L1.43151 6.66658C1.18446 6.66658 0.947523 6.56773 0.772832 6.39177C0.598141 6.21581 0.5 5.97716 0.5 5.72831C0.5 5.47947 0.598141 5.24081 0.772832 5.06485C0.947523 4.88889 1.18446 4.79004 1.43151 4.79004L16.5685 4.79004C16.8155 4.79004 17.0525 4.88889 17.2272 5.06485C17.4019 5.24081 17.5 5.47947 17.5 5.72831C17.5 5.97716 17.4019 6.21581 17.2272 6.39177C17.0525 6.56773 16.8155 6.66658 16.5685 6.66658Z" fill="#ffffff" fill-rule="nonzero" opacity="1" stroke="none"/>
<path d="M16.5685 2.2098L1.43151 2.2098C1.18446 2.2098 0.947523 2.11094 0.772832 1.93498C0.598141 1.75902 0.5 1.52037 0.5 1.27152C0.5 1.02268 0.598141 0.784025 0.772832 0.608065C0.947523 0.432105 1.18446 0.333252 1.43151 0.333252L16.5685 0.333252C16.8155 0.333252 17.0525 0.432105 17.2272 0.608065C17.4019 0.784025 17.5 1.02268 17.5 1.27152C17.5 1.52037 17.4019 1.75902 17.2272 1.93498C17.0525 2.11094 16.8155 2.2098 16.5685 2.2098Z" fill="#ffffff" fill-rule="nonzero" opacity="1" stroke="none"/>
</g>
</svg>
