<svg width="42" height="55" viewBox="0 0 42 55" fill="none" xmlns="http://www.w3.org/2000/svg">
<path d="M0.333336 54.8334C0.333336 49.3522 2.51071 44.0956 6.38646 40.2198C10.2622 36.3441 15.5189 34.1667 21 34.1667C26.4811 34.1667 31.7378 36.3441 35.6135 40.2198C39.4893 44.0956 41.6667 49.3522 41.6667 54.8334H36.5C36.5 50.7225 34.867 46.78 31.9602 43.8732C29.0533 40.9664 25.1109 39.3334 21 39.3334C16.8891 39.3334 12.9467 40.9664 10.0398 43.8732C7.13303 46.78 5.5 50.7225 5.5 54.8334H0.333336ZM21 31.5834C12.4363 31.5834 5.5 24.6471 5.5 16.0834C5.5 7.51962 12.4363 0.583374 21 0.583374C29.5638 0.583374 36.5 7.51962 36.5 16.0834C36.5 24.6471 29.5638 31.5834 21 31.5834ZM21 26.4167C26.7092 26.4167 31.3333 21.7925 31.3333 16.0834C31.3333 10.3742 26.7092 5.75004 21 5.75004C15.2908 5.75004 10.6667 10.3742 10.6667 16.0834C10.6667 21.7925 15.2908 26.4167 21 26.4167Z" fill="white"/>
</svg>
