<svg width="334" height="82" viewBox="0 0 334 82" fill="none" xmlns="http://www.w3.org/2000/svg">
<g filter="url(#filter0_d_656_3857)">
<g filter="url(#filter1_d_656_3857)">
<rect x="4" y="4" width="326" height="74" rx="20" fill="#2A3647" shape-rendering="crispEdges"/>
<path d="M40.4351 41.813L44.8037 33.5811H46.8589L41.3896 43.6323V50H39.4805V43.7222L34 33.5811H36.0889L40.4351 41.813ZM59.4482 43.8232C59.4482 44.834 59.3172 45.7362 59.0552 46.5298C58.7931 47.3234 58.415 47.9935 57.9209 48.54C57.4268 49.0866 56.8278 49.5059 56.124 49.7979C55.4277 50.0824 54.6379 50.2246 53.7544 50.2246C52.9308 50.2246 52.1746 50.0824 51.4858 49.7979C50.8045 49.5059 50.2131 49.0866 49.7114 48.54C49.2173 47.9935 48.8317 47.3234 48.5547 46.5298C48.2852 45.7362 48.1504 44.834 48.1504 43.8232C48.1504 42.4756 48.3787 41.3301 48.8354 40.3867C49.2922 39.4359 49.9435 38.7134 50.7896 38.2192C51.6431 37.7176 52.6576 37.4668 53.833 37.4668C54.9561 37.4668 55.9368 37.7176 56.7754 38.2192C57.6214 38.7209 58.2765 39.4471 58.7407 40.3979C59.2124 41.3413 59.4482 42.4831 59.4482 43.8232ZM50.082 43.8232C50.082 44.8115 50.2131 45.6688 50.4751 46.395C50.7371 47.1213 51.1414 47.6828 51.688 48.0796C52.2345 48.4764 52.9383 48.6748 53.7993 48.6748C54.6528 48.6748 55.3529 48.4764 55.8994 48.0796C56.4535 47.6828 56.8615 47.1213 57.1235 46.395C57.3856 45.6688 57.5166 44.8115 57.5166 43.8232C57.5166 42.8424 57.3856 41.9964 57.1235 41.2852C56.8615 40.5664 56.4572 40.0124 55.9106 39.623C55.3641 39.2337 54.6566 39.0391 53.7881 39.0391C52.5078 39.0391 51.5682 39.4621 50.9692 40.3081C50.3778 41.1541 50.082 42.3258 50.082 43.8232ZM72.835 37.6914V50H71.3076L71.0381 48.2705H70.937C70.6825 48.6973 70.353 49.0566 69.9487 49.3486C69.5444 49.6406 69.0877 49.8577 68.5786 50C68.077 50.1497 67.5417 50.2246 66.9727 50.2246C65.9993 50.2246 65.1833 50.0674 64.5244 49.7529C63.8656 49.4385 63.3677 48.9518 63.0308 48.293C62.7013 47.6341 62.5366 46.7881 62.5366 45.7549V37.6914H64.4233V45.6201C64.4233 46.6458 64.6554 47.4132 65.1196 47.9224C65.5838 48.424 66.2913 48.6748 67.2422 48.6748C68.1556 48.6748 68.8818 48.5026 69.4209 48.1582C69.9674 47.8138 70.3605 47.3084 70.6001 46.6421C70.8397 45.9683 70.9595 45.1447 70.9595 44.1714V37.6914H72.835ZM88.3442 37.4668C88.5913 37.4668 88.8496 37.4818 89.1191 37.5117C89.3887 37.5342 89.6283 37.5679 89.8379 37.6128L89.6021 39.3423C89.3999 39.2899 89.1753 39.2487 88.9282 39.2188C88.6812 39.1888 88.4491 39.1738 88.2319 39.1738C87.7378 39.1738 87.2699 39.2749 86.8281 39.4771C86.3939 39.6717 86.012 39.9562 85.6826 40.3306C85.3532 40.6974 85.0949 41.1429 84.9077 41.667C84.7205 42.1836 84.627 42.7601 84.627 43.3965V50H82.7515V37.6914H84.3013L84.5034 39.96H84.582C84.8366 39.5033 85.1436 39.0877 85.5029 38.7134C85.8623 38.3315 86.2778 38.0283 86.7495 37.8037C87.2287 37.5791 87.7603 37.4668 88.3442 37.4668ZM96.9019 37.4668C97.95 37.4668 98.8485 37.6989 99.5972 38.1631C100.346 38.6273 100.919 39.2786 101.315 40.1172C101.712 40.9482 101.911 41.9215 101.911 43.0371V44.1938H93.4092C93.4316 45.6388 93.791 46.7394 94.4873 47.4956C95.1836 48.2518 96.1644 48.6299 97.4297 48.6299C98.2083 48.6299 98.8971 48.5588 99.4961 48.4165C100.095 48.2743 100.716 48.0646 101.36 47.7876V49.4272C100.739 49.7043 100.121 49.9064 99.5073 50.0337C98.9009 50.161 98.1821 50.2246 97.3511 50.2246C96.1681 50.2246 95.1349 49.985 94.2515 49.5059C93.3755 49.0192 92.6942 48.3079 92.2075 47.3721C91.7209 46.4362 91.4775 45.2907 91.4775 43.9355C91.4775 42.6104 91.6984 41.4648 92.1401 40.499C92.5894 39.5257 93.2183 38.777 94.0269 38.2529C94.8429 37.7288 95.8013 37.4668 96.9019 37.4668ZM96.8794 38.9941C95.8836 38.9941 95.09 39.3198 94.4985 39.9712C93.9071 40.6226 93.5552 41.5322 93.4429 42.7002H99.9565C99.9491 41.9665 99.833 41.3226 99.6084 40.7686C99.3913 40.207 99.0581 39.7728 98.6089 39.4658C98.1597 39.1514 97.5832 38.9941 96.8794 38.9941ZM113.04 46.6309C113.04 47.417 112.842 48.0796 112.445 48.6187C112.056 49.1502 111.494 49.5508 110.76 49.8203C110.034 50.0898 109.166 50.2246 108.155 50.2246C107.294 50.2246 106.549 50.1572 105.92 50.0225C105.291 49.8877 104.741 49.6968 104.269 49.4497V47.7314C104.771 47.9785 105.37 48.2031 106.066 48.4053C106.762 48.6074 107.473 48.7085 108.2 48.7085C109.263 48.7085 110.034 48.5363 110.513 48.1919C110.992 47.8475 111.232 47.3796 111.232 46.7881C111.232 46.4512 111.135 46.1554 110.94 45.9009C110.753 45.6388 110.435 45.388 109.985 45.1484C109.536 44.9014 108.915 44.6318 108.121 44.3398C107.335 44.0404 106.654 43.7446 106.077 43.4526C105.508 43.1532 105.066 42.79 104.752 42.3633C104.445 41.9365 104.292 41.3825 104.292 40.7012C104.292 39.6605 104.711 38.8631 105.549 38.3091C106.395 37.7476 107.503 37.4668 108.874 37.4668C109.615 37.4668 110.307 37.5417 110.951 37.6914C111.603 37.8337 112.209 38.0283 112.771 38.2754L112.142 39.769C111.632 39.5519 111.09 39.3685 110.513 39.2188C109.937 39.069 109.349 38.9941 108.75 38.9941C107.889 38.9941 107.226 39.1364 106.762 39.4209C106.306 39.7054 106.077 40.0947 106.077 40.5889C106.077 40.9707 106.182 41.2852 106.392 41.5322C106.609 41.7793 106.953 42.0114 107.425 42.2285C107.896 42.4456 108.518 42.7002 109.289 42.9922C110.06 43.2767 110.727 43.5724 111.288 43.8794C111.85 44.1789 112.28 44.5457 112.58 44.98C112.887 45.4067 113.04 45.957 113.04 46.6309ZM120.778 37.4668C121.826 37.4668 122.724 37.6989 123.473 38.1631C124.222 38.6273 124.795 39.2786 125.191 40.1172C125.588 40.9482 125.787 41.9215 125.787 43.0371V44.1938H117.285C117.308 45.6388 117.667 46.7394 118.363 47.4956C119.06 48.2518 120.04 48.6299 121.306 48.6299C122.084 48.6299 122.773 48.5588 123.372 48.4165C123.971 48.2743 124.592 48.0646 125.236 47.7876V49.4272C124.615 49.7043 123.997 49.9064 123.383 50.0337C122.777 50.161 122.058 50.2246 121.227 50.2246C120.044 50.2246 119.011 49.985 118.127 49.5059C117.251 49.0192 116.57 48.3079 116.083 47.3721C115.597 46.4362 115.354 45.2907 115.354 43.9355C115.354 42.6104 115.574 41.4648 116.016 40.499C116.465 39.5257 117.094 38.777 117.903 38.2529C118.719 37.7288 119.677 37.4668 120.778 37.4668ZM120.755 38.9941C119.76 38.9941 118.966 39.3198 118.375 39.9712C117.783 40.6226 117.431 41.5322 117.319 42.7002H123.833C123.825 41.9665 123.709 41.3226 123.484 40.7686C123.267 40.207 122.934 39.7728 122.485 39.4658C122.036 39.1514 121.459 38.9941 120.755 38.9941ZM132.929 48.6973C133.236 48.6973 133.551 48.6711 133.873 48.6187C134.194 48.5662 134.457 48.5026 134.659 48.4277V49.8765C134.442 49.9738 134.138 50.0562 133.749 50.1235C133.367 50.1909 132.993 50.2246 132.626 50.2246C131.975 50.2246 131.383 50.1123 130.852 49.8877C130.32 49.6556 129.893 49.2663 129.571 48.7197C129.257 48.1732 129.1 47.417 129.1 46.4512V39.1514H127.348V38.2417L129.111 37.5117L129.852 34.8389H130.975V37.6914H134.58V39.1514H130.975V46.395C130.975 47.1662 131.151 47.7427 131.503 48.1245C131.862 48.5063 132.338 48.6973 132.929 48.6973ZM141.184 37.6914H143.183L145.9 44.834C146.058 45.2533 146.204 45.6576 146.338 46.0469C146.473 46.4287 146.593 46.7956 146.698 47.1475C146.803 47.4993 146.885 47.84 146.945 48.1694H147.023C147.128 47.7951 147.278 47.3047 147.473 46.6982C147.667 46.0843 147.877 45.4591 148.102 44.8228L150.673 37.6914H152.684L147.327 51.8081C147.042 52.5643 146.709 53.2231 146.327 53.7847C145.953 54.3462 145.496 54.7767 144.957 55.0762C144.418 55.3831 143.767 55.5366 143.003 55.5366C142.651 55.5366 142.34 55.5142 142.071 55.4692C141.801 55.4318 141.569 55.3869 141.375 55.3345V53.8408C141.539 53.8783 141.738 53.9119 141.97 53.9419C142.209 53.9718 142.456 53.9868 142.711 53.9868C143.175 53.9868 143.576 53.897 143.913 53.7173C144.257 53.5451 144.553 53.2905 144.8 52.9536C145.047 52.6167 145.26 52.2161 145.44 51.752L146.114 50.0225L141.184 37.6914ZM165.262 43.8232C165.262 44.834 165.131 45.7362 164.869 46.5298C164.607 47.3234 164.229 47.9935 163.734 48.54C163.24 49.0866 162.641 49.5059 161.938 49.7979C161.241 50.0824 160.451 50.2246 159.568 50.2246C158.744 50.2246 157.988 50.0824 157.299 49.7979C156.618 49.5059 156.027 49.0866 155.525 48.54C155.031 47.9935 154.645 47.3234 154.368 46.5298C154.099 45.7362 153.964 44.834 153.964 43.8232C153.964 42.4756 154.192 41.3301 154.649 40.3867C155.106 39.4359 155.757 38.7134 156.603 38.2192C157.457 37.7176 158.471 37.4668 159.646 37.4668C160.77 37.4668 161.75 37.7176 162.589 38.2192C163.435 38.7209 164.09 39.4471 164.554 40.3979C165.026 41.3413 165.262 42.4831 165.262 43.8232ZM155.896 43.8232C155.896 44.8115 156.027 45.6688 156.289 46.395C156.551 47.1213 156.955 47.6828 157.501 48.0796C158.048 48.4764 158.752 48.6748 159.613 48.6748C160.466 48.6748 161.166 48.4764 161.713 48.0796C162.267 47.6828 162.675 47.1213 162.937 46.395C163.199 45.6688 163.33 44.8115 163.33 43.8232C163.33 42.8424 163.199 41.9964 162.937 41.2852C162.675 40.5664 162.271 40.0124 161.724 39.623C161.178 39.2337 160.47 39.0391 159.602 39.0391C158.321 39.0391 157.382 39.4621 156.783 40.3081C156.191 41.1541 155.896 42.3258 155.896 43.8232ZM178.648 37.6914V50H177.121L176.852 48.2705H176.75C176.496 48.6973 176.167 49.0566 175.762 49.3486C175.358 49.6406 174.901 49.8577 174.392 50C173.89 50.1497 173.355 50.2246 172.786 50.2246C171.813 50.2246 170.997 50.0674 170.338 49.7529C169.679 49.4385 169.181 48.9518 168.844 48.293C168.515 47.6341 168.35 46.7881 168.35 45.7549V37.6914H170.237V45.6201C170.237 46.6458 170.469 47.4132 170.933 47.9224C171.397 48.424 172.105 48.6748 173.056 48.6748C173.969 48.6748 174.695 48.5026 175.234 48.1582C175.781 47.8138 176.174 47.3084 176.414 46.6421C176.653 45.9683 176.773 45.1447 176.773 44.1714V37.6914H178.648ZM188.183 37.4668C188.43 37.4668 188.688 37.4818 188.958 37.5117C189.228 37.5342 189.467 37.5679 189.677 37.6128L189.441 39.3423C189.239 39.2899 189.014 39.2487 188.767 39.2188C188.52 39.1888 188.288 39.1738 188.071 39.1738C187.577 39.1738 187.109 39.2749 186.667 39.4771C186.233 39.6717 185.851 39.9562 185.521 40.3306C185.192 40.6974 184.934 41.1429 184.747 41.667C184.559 42.1836 184.466 42.7601 184.466 43.3965V50H182.59V37.6914H184.14L184.342 39.96H184.421C184.675 39.5033 184.982 39.0877 185.342 38.7134C185.701 38.3315 186.117 38.0283 186.588 37.8037C187.068 37.5791 187.599 37.4668 188.183 37.4668ZM203.76 37.4668C205.295 37.4668 206.519 37.9946 207.432 39.0503C208.346 40.106 208.802 41.6932 208.802 43.812C208.802 45.2121 208.593 46.3875 208.173 47.3384C207.754 48.2892 207.163 49.008 206.399 49.4946C205.643 49.9813 204.748 50.2246 203.715 50.2246C203.063 50.2246 202.491 50.1385 201.997 49.9663C201.502 49.7941 201.079 49.562 200.728 49.27C200.376 48.978 200.084 48.6598 199.852 48.3154H199.717C199.739 48.6074 199.765 48.9593 199.795 49.3711C199.833 49.7829 199.852 50.1423 199.852 50.4492V55.5029H197.976V37.6914H199.515L199.762 39.5107H199.852C200.091 39.1364 200.383 38.7957 200.728 38.4888C201.072 38.1743 201.491 37.9272 201.985 37.7476C202.487 37.5604 203.078 37.4668 203.76 37.4668ZM203.434 39.0391C202.581 39.0391 201.892 39.2038 201.368 39.5332C200.851 39.8626 200.473 40.3568 200.233 41.0156C199.994 41.667 199.867 42.4868 199.852 43.4751V43.8345C199.852 44.8752 199.964 45.7549 200.188 46.4736C200.421 47.1924 200.799 47.7389 201.323 48.1133C201.854 48.4876 202.566 48.6748 203.457 48.6748C204.22 48.6748 204.857 48.4689 205.366 48.0571C205.875 47.6453 206.253 47.0726 206.5 46.3389C206.755 45.5977 206.882 44.7479 206.882 43.7896C206.882 42.3371 206.597 41.1841 206.028 40.3306C205.467 39.4696 204.602 39.0391 203.434 39.0391ZM216.664 37.4893C218.131 37.4893 219.22 37.8187 219.932 38.4775C220.643 39.1364 220.999 40.1883 220.999 41.6333V50H219.64L219.28 48.1807H219.19C218.846 48.6299 218.487 49.008 218.112 49.3149C217.738 49.6144 217.304 49.8428 216.81 50C216.323 50.1497 215.724 50.2246 215.013 50.2246C214.264 50.2246 213.598 50.0936 213.014 49.8315C212.437 49.5695 211.98 49.1727 211.644 48.6411C211.314 48.1095 211.149 47.4357 211.149 46.6196C211.149 45.3918 211.636 44.4484 212.609 43.7896C213.583 43.1307 215.065 42.7713 217.057 42.7114L219.179 42.6216V41.8691C219.179 40.806 218.951 40.061 218.494 39.6343C218.037 39.2075 217.394 38.9941 216.562 38.9941C215.919 38.9941 215.305 39.0877 214.721 39.2749C214.137 39.4621 213.583 39.6829 213.059 39.9375L212.486 38.5225C213.04 38.238 213.676 37.9946 214.395 37.7925C215.114 37.5903 215.87 37.4893 216.664 37.4893ZM219.157 43.9355L217.281 44.0142C215.746 44.0741 214.665 44.3249 214.036 44.7666C213.407 45.2083 213.092 45.8335 213.092 46.6421C213.092 47.3459 213.306 47.8662 213.732 48.2031C214.159 48.54 214.724 48.7085 215.428 48.7085C216.521 48.7085 217.416 48.4053 218.112 47.7988C218.809 47.1924 219.157 46.2827 219.157 45.0698V43.9355ZM232.802 46.6309C232.802 47.417 232.603 48.0796 232.207 48.6187C231.817 49.1502 231.256 49.5508 230.522 49.8203C229.796 50.0898 228.927 50.2246 227.917 50.2246C227.056 50.2246 226.311 50.1572 225.682 50.0225C225.053 49.8877 224.502 49.6968 224.031 49.4497V47.7314C224.532 47.9785 225.131 48.2031 225.828 48.4053C226.524 48.6074 227.235 48.7085 227.961 48.7085C229.025 48.7085 229.796 48.5363 230.275 48.1919C230.754 47.8475 230.994 47.3796 230.994 46.7881C230.994 46.4512 230.896 46.1554 230.702 45.9009C230.514 45.6388 230.196 45.388 229.747 45.1484C229.298 44.9014 228.676 44.6318 227.883 44.3398C227.097 44.0404 226.415 43.7446 225.839 43.4526C225.27 43.1532 224.828 42.79 224.514 42.3633C224.207 41.9365 224.053 41.3825 224.053 40.7012C224.053 39.6605 224.472 38.8631 225.311 38.3091C226.157 37.7476 227.265 37.4668 228.635 37.4668C229.376 37.4668 230.069 37.5417 230.713 37.6914C231.364 37.8337 231.971 38.0283 232.532 38.2754L231.903 39.769C231.394 39.5519 230.851 39.3685 230.275 39.2188C229.698 39.069 229.111 38.9941 228.512 38.9941C227.651 38.9941 226.988 39.1364 226.524 39.4209C226.067 39.7054 225.839 40.0947 225.839 40.5889C225.839 40.9707 225.944 41.2852 226.153 41.5322C226.37 41.7793 226.715 42.0114 227.187 42.2285C227.658 42.4456 228.28 42.7002 229.051 42.9922C229.822 43.2767 230.488 43.5724 231.05 43.8794C231.611 44.1789 232.042 44.5457 232.341 44.98C232.648 45.4067 232.802 45.957 232.802 46.6309ZM243.763 46.6309C243.763 47.417 243.564 48.0796 243.167 48.6187C242.778 49.1502 242.217 49.5508 241.483 49.8203C240.757 50.0898 239.888 50.2246 238.877 50.2246C238.016 50.2246 237.271 50.1572 236.643 50.0225C236.014 49.8877 235.463 49.6968 234.992 49.4497V47.7314C235.493 47.9785 236.092 48.2031 236.789 48.4053C237.485 48.6074 238.196 48.7085 238.922 48.7085C239.986 48.7085 240.757 48.5363 241.236 48.1919C241.715 47.8475 241.955 47.3796 241.955 46.7881C241.955 46.4512 241.857 46.1554 241.663 45.9009C241.475 45.6388 241.157 45.388 240.708 45.1484C240.259 44.9014 239.637 44.6318 238.844 44.3398C238.058 44.0404 237.376 43.7446 236.8 43.4526C236.231 43.1532 235.789 42.79 235.475 42.3633C235.168 41.9365 235.014 41.3825 235.014 40.7012C235.014 39.6605 235.433 38.8631 236.272 38.3091C237.118 37.7476 238.226 37.4668 239.596 37.4668C240.337 37.4668 241.03 37.5417 241.674 37.6914C242.325 37.8337 242.932 38.0283 243.493 38.2754L242.864 39.769C242.355 39.5519 241.812 39.3685 241.236 39.2188C240.659 39.069 240.072 38.9941 239.473 38.9941C238.612 38.9941 237.949 39.1364 237.485 39.4209C237.028 39.7054 236.8 40.0947 236.8 40.5889C236.8 40.9707 236.905 41.2852 237.114 41.5322C237.331 41.7793 237.676 42.0114 238.147 42.2285C238.619 42.4456 239.241 42.7002 240.012 42.9922C240.783 43.2767 241.449 43.5724 242.011 43.8794C242.572 44.1789 243.003 44.5457 243.302 44.98C243.609 45.4067 243.763 45.957 243.763 46.6309ZM256.779 49.9775L254.589 42.8125C254.492 42.5055 254.398 42.2061 254.308 41.9141C254.226 41.6146 254.147 41.3301 254.072 41.0605C254.005 40.7835 253.941 40.529 253.881 40.2969C253.829 40.0573 253.784 39.8514 253.747 39.6792H253.668C253.638 39.8514 253.597 40.0573 253.544 40.2969C253.492 40.529 253.428 40.7835 253.354 41.0605C253.286 41.3376 253.211 41.6296 253.129 41.9365C253.047 42.236 252.953 42.5392 252.848 42.8462L250.557 49.9775H248.457L245.065 37.6689H246.997L248.771 44.4634C248.891 44.9126 249.004 45.3581 249.108 45.7998C249.221 46.234 249.314 46.6458 249.389 47.0352C249.472 47.417 249.531 47.7502 249.569 48.0347H249.659C249.704 47.8475 249.752 47.6229 249.805 47.3608C249.865 47.0988 249.928 46.8218 249.996 46.5298C250.07 46.2303 250.149 45.9346 250.231 45.6426C250.314 45.3431 250.396 45.0623 250.479 44.8003L252.747 37.6689H254.757L256.947 44.7891C257.06 45.1484 257.168 45.5228 257.273 45.9121C257.385 46.3014 257.486 46.6795 257.576 47.0464C257.666 47.4058 257.73 47.7277 257.767 48.0122H257.857C257.887 47.7576 257.943 47.4432 258.025 47.0688C258.108 46.6945 258.201 46.2827 258.306 45.8335C258.418 45.3843 258.535 44.9276 258.654 44.4634L260.451 37.6689H262.349L258.946 49.9775H256.779ZM275.208 43.8232C275.208 44.834 275.077 45.7362 274.815 46.5298C274.553 47.3234 274.175 47.9935 273.681 48.54C273.187 49.0866 272.588 49.5059 271.884 49.7979C271.188 50.0824 270.398 50.2246 269.514 50.2246C268.691 50.2246 267.934 50.0824 267.246 49.7979C266.564 49.5059 265.973 49.0866 265.471 48.54C264.977 47.9935 264.591 47.3234 264.314 46.5298C264.045 45.7362 263.91 44.834 263.91 43.8232C263.91 42.4756 264.139 41.3301 264.595 40.3867C265.052 39.4359 265.703 38.7134 266.549 38.2192C267.403 37.7176 268.417 37.4668 269.593 37.4668C270.716 37.4668 271.697 37.7176 272.535 38.2192C273.381 38.7209 274.036 39.4471 274.5 40.3979C274.972 41.3413 275.208 42.4831 275.208 43.8232ZM265.842 43.8232C265.842 44.8115 265.973 45.6688 266.235 46.395C266.497 47.1213 266.901 47.6828 267.448 48.0796C267.994 48.4764 268.698 48.6748 269.559 48.6748C270.413 48.6748 271.113 48.4764 271.659 48.0796C272.213 47.6828 272.621 47.1213 272.883 46.395C273.145 45.6688 273.276 44.8115 273.276 43.8232C273.276 42.8424 273.145 41.9964 272.883 41.2852C272.621 40.5664 272.217 40.0124 271.67 39.623C271.124 39.2337 270.416 39.0391 269.548 39.0391C268.268 39.0391 267.328 39.4621 266.729 40.3081C266.138 41.1541 265.842 42.3258 265.842 43.8232ZM284.024 37.4668C284.271 37.4668 284.529 37.4818 284.799 37.5117C285.068 37.5342 285.308 37.5679 285.518 37.6128L285.282 39.3423C285.08 39.2899 284.855 39.2487 284.608 39.2188C284.361 39.1888 284.129 39.1738 283.912 39.1738C283.417 39.1738 282.95 39.2749 282.508 39.4771C282.074 39.6717 281.692 39.9562 281.362 40.3306C281.033 40.6974 280.775 41.1429 280.587 41.667C280.4 42.1836 280.307 42.7601 280.307 43.3965V50H278.431V37.6914H279.981L280.183 39.96H280.262C280.516 39.5033 280.823 39.0877 281.183 38.7134C281.542 38.3315 281.958 38.0283 282.429 37.8037C282.908 37.5791 283.44 37.4668 284.024 37.4668ZM292.222 50.2246C290.665 50.2246 289.43 49.693 288.516 48.6299C287.61 47.5667 287.157 45.987 287.157 43.8906C287.157 41.7718 287.621 40.1733 288.55 39.0952C289.478 38.0096 290.714 37.4668 292.256 37.4668C292.907 37.4668 293.476 37.5529 293.963 37.7251C294.45 37.8973 294.869 38.1294 295.221 38.4214C295.573 38.7059 295.868 39.0316 296.108 39.3984H296.243C296.213 39.1663 296.183 38.8481 296.153 38.4438C296.123 38.0396 296.108 37.7101 296.108 37.4556V32.5254H297.972V50H296.467L296.187 48.248H296.108C295.876 48.6149 295.58 48.9481 295.221 49.2476C294.869 49.547 294.446 49.7866 293.952 49.9663C293.465 50.1385 292.889 50.2246 292.222 50.2246ZM292.514 48.6748C293.832 48.6748 294.764 48.3005 295.311 47.5518C295.857 46.8031 296.13 45.6912 296.13 44.2163V43.8794C296.13 42.3146 295.868 41.113 295.344 40.2744C294.828 39.4359 293.884 39.0166 292.514 39.0166C291.369 39.0166 290.511 39.4583 289.942 40.3418C289.373 41.2178 289.089 42.4157 289.089 43.9355C289.089 45.4479 289.37 46.6159 289.931 47.4395C290.5 48.263 291.361 48.6748 292.514 48.6748Z" fill="white"/>
</g>
</g>
<defs>
<filter id="filter0_d_656_3857" x="0" y="0" width="334" height="82" filterUnits="userSpaceOnUse" color-interpolation-filters="sRGB">
<feFlood flood-opacity="0" result="BackgroundImageFix"/>
<feColorMatrix in="SourceAlpha" type="matrix" values="0 0 0 0 0 0 0 0 0 0 0 0 0 0 0 0 0 0 127 0" result="hardAlpha"/>
<feOffset/>
<feGaussianBlur stdDeviation="2"/>
<feColorMatrix type="matrix" values="0 0 0 0 0 0 0 0 0 0 0 0 0 0 0 0 0 0 0.1 0"/>
<feBlend mode="normal" in2="BackgroundImageFix" result="effect1_dropShadow_656_3857"/>
<feBlend mode="normal" in="SourceGraphic" in2="effect1_dropShadow_656_3857" result="shape"/>
</filter>
<filter id="filter1_d_656_3857" x="0" y="0" width="334" height="82" filterUnits="userSpaceOnUse" color-interpolation-filters="sRGB">
<feFlood flood-opacity="0" result="BackgroundImageFix"/>
<feColorMatrix in="SourceAlpha" type="matrix" values="0 0 0 0 0 0 0 0 0 0 0 0 0 0 0 0 0 0 127 0" result="hardAlpha"/>
<feOffset/>
<feGaussianBlur stdDeviation="2"/>
<feComposite in2="hardAlpha" operator="out"/>
<feColorMatrix type="matrix" values="0 0 0 0 0 0 0 0 0 0 0 0 0 0 0 0 0 0 0.15 0"/>
<feBlend mode="normal" in2="BackgroundImageFix" result="effect1_dropShadow_656_3857"/>
<feBlend mode="normal" in="SourceGraphic" in2="effect1_dropShadow_656_3857" result="shape"/>
</filter>
</defs>
</svg>
