<svg width="432" height="82" viewBox="0 0 432 82" fill="none" xmlns="http://www.w3.org/2000/svg">
<g filter="url(#filter0_d_10119_3717)">
<g filter="url(#filter1_d_10119_3717)">
<rect x="4" y="4" width="424" height="74" rx="20" fill="#2A3647" shape-rendering="crispEdges"/>
<g clip-path="url(#clip0_10119_3717)">
<path d="M64.9078 22.2579C65.001 22.025 65.0238 21.77 64.9734 21.5243C64.923 21.2786 64.8016 21.0531 64.6243 20.8758C64.4469 20.6984 64.2215 20.577 63.9758 20.5266C63.7301 20.4762 63.475 20.499 63.2422 20.5922L25.9655 35.5034C25.6372 35.6348 25.3515 35.8543 25.1399 36.1376C24.9283 36.4209 24.799 36.757 24.7661 37.1091C24.7333 37.4612 24.7982 37.8155 24.9537 38.1331C25.1093 38.4506 25.3494 38.7191 25.6477 38.909L38.4474 47.0526L42.3706 53.218C42.5559 53.4977 42.8435 53.6936 43.1717 53.7636C43.4999 53.8335 43.8424 53.772 44.1257 53.5921C44.4089 53.4122 44.6103 53.1283 44.6866 52.8016C44.7628 52.4748 44.7078 52.1311 44.5334 51.8445L41.0074 46.3044L60.2107 27.101L55.3548 39.2421C55.2881 39.399 55.2534 39.5677 55.2527 39.7382C55.2519 39.9086 55.2853 40.0776 55.3507 40.235C55.4161 40.3925 55.5123 40.5353 55.6336 40.6551C55.7549 40.7749 55.8989 40.8693 56.0572 40.9327C56.2154 40.9962 56.3847 41.0274 56.5552 41.0245C56.7257 41.0217 56.8939 40.9849 57.0499 40.9162C57.206 40.8475 57.3468 40.7484 57.464 40.6246C57.5813 40.5008 57.6727 40.3549 57.7328 40.1954L64.9078 22.2579ZM58.399 25.2893L39.1957 44.4927L28.077 37.4176L58.399 25.2893Z" fill="white"/>
<path d="M65 52.5312C65 54.9099 64.0551 57.1911 62.3731 58.8731C60.6911 60.5551 58.4099 61.5 56.0312 61.5C53.6526 61.5 51.3714 60.5551 49.6894 58.8731C48.0074 57.1911 47.0625 54.9099 47.0625 52.5312C47.0625 50.1526 48.0074 47.8714 49.6894 46.1894C51.3714 44.5074 53.6526 43.5625 56.0312 43.5625C58.4099 43.5625 60.6911 44.5074 62.3731 46.1894C64.0551 47.8714 65 50.1526 65 52.5312ZM59.8929 48.2288C59.7486 48.1423 59.5886 48.0851 59.4221 48.0604C59.2556 48.0357 59.0859 48.0441 58.9227 48.085C58.7595 48.126 58.6059 48.1986 58.4707 48.2989C58.3356 48.3992 58.2215 48.5252 58.1351 48.6696L55.1369 53.6664L53.7353 52.2647C53.4947 52.0242 53.1684 51.889 52.8281 51.889C52.4879 51.889 52.1616 52.0242 51.921 52.2647C51.6804 52.5053 51.5453 52.8316 51.5453 53.1719C51.5453 53.5121 51.6804 53.8384 51.921 54.079L53.9044 56.0598C54.1108 56.2667 54.3617 56.4237 54.638 56.519C54.9142 56.6143 55.2086 56.6453 55.4986 56.6097C55.7887 56.5742 56.0668 56.4729 56.3119 56.3137C56.5569 56.1544 56.7624 55.9414 56.9127 55.6908L60.3337 49.9867C60.4202 49.8423 60.4774 49.6823 60.5021 49.5159C60.5268 49.3494 60.5184 49.1797 60.4775 49.0164C60.4365 48.8532 60.3639 48.6996 60.2636 48.5645C60.1633 48.4293 60.0373 48.3153 59.8929 48.2288Z" fill="white"/>
</g>
<path d="M90.5444 50L88.5229 44.7891H81.9419L79.9316 50H78L84.4238 33.5137H86.1421L92.521 50H90.5444ZM87.9502 43.0933L86.0298 37.916C85.9849 37.7812 85.91 37.5604 85.8052 37.2534C85.7078 36.9465 85.6068 36.6283 85.502 36.2988C85.3971 35.9694 85.311 35.7036 85.2437 35.5015C85.1688 35.8084 85.0864 36.1154 84.9966 36.4224C84.9142 36.7218 84.8319 37.0026 84.7495 37.2646C84.6672 37.5192 84.596 37.7363 84.5361 37.916L82.582 43.0933H87.9502ZM100.349 37.4668C101.809 37.4668 102.913 37.8262 103.662 38.5449C104.41 39.2562 104.785 40.4017 104.785 41.9814V50H102.943V42.105C102.943 41.0793 102.707 40.3118 102.235 39.8027C101.771 39.2936 101.056 39.0391 100.09 39.0391C98.7277 39.0391 97.7694 39.4246 97.2153 40.1958C96.6613 40.967 96.3843 42.0863 96.3843 43.5537V50H94.52V37.6914H96.0249L96.3057 39.4658H96.4067C96.6688 39.0316 97.002 38.6685 97.4062 38.3765C97.8105 38.077 98.2635 37.8524 98.7651 37.7026C99.2668 37.5454 99.7946 37.4668 100.349 37.4668ZM124.022 50H114.881V33.5811H124.022V35.2656H116.79V40.5776H123.607V42.2397H116.79V48.3154H124.022V50ZM126.336 44.6543V42.9922H131.906V44.6543H126.336ZM142.294 50L136.78 35.4678H136.69C136.72 35.7747 136.747 36.1491 136.769 36.5908C136.792 37.0326 136.81 37.5155 136.825 38.0396C136.84 38.5562 136.848 39.084 136.848 39.623V50H135.073V33.5811H137.903L143.103 47.2373H143.182L148.46 33.5811H151.268V50H149.381V39.4883C149.381 39.0016 149.388 38.515 149.403 38.0283C149.418 37.5342 149.437 37.07 149.459 36.6357C149.482 36.194 149.504 35.8122 149.527 35.4902H149.437L143.855 50H142.294ZM160.083 37.4893C161.551 37.4893 162.64 37.8187 163.352 38.4775C164.063 39.1364 164.418 40.1883 164.418 41.6333V50H163.06L162.7 48.1807H162.61C162.266 48.6299 161.907 49.008 161.532 49.3149C161.158 49.6144 160.724 49.8428 160.229 50C159.743 50.1497 159.144 50.2246 158.433 50.2246C157.684 50.2246 157.018 50.0936 156.434 49.8315C155.857 49.5695 155.4 49.1727 155.063 48.6411C154.734 48.1095 154.569 47.4357 154.569 46.6196C154.569 45.3918 155.056 44.4484 156.029 43.7896C157.003 43.1307 158.485 42.7713 160.477 42.7114L162.599 42.6216V41.8691C162.599 40.806 162.371 40.061 161.914 39.6343C161.457 39.2075 160.813 38.9941 159.982 38.9941C159.339 38.9941 158.725 39.0877 158.141 39.2749C157.557 39.4621 157.003 39.6829 156.479 39.9375L155.906 38.5225C156.46 38.238 157.096 37.9946 157.815 37.7925C158.534 37.5903 159.29 37.4893 160.083 37.4893ZM162.577 43.9355L160.701 44.0142C159.166 44.0741 158.084 44.3249 157.456 44.7666C156.827 45.2083 156.512 45.8335 156.512 46.6421C156.512 47.3459 156.726 47.8662 157.152 48.2031C157.579 48.54 158.144 48.7085 158.848 48.7085C159.941 48.7085 160.836 48.4053 161.532 47.7988C162.229 47.1924 162.577 46.2827 162.577 45.0698V43.9355ZM170.124 37.6914V50H168.259V37.6914H170.124ZM169.214 33.0869C169.521 33.0869 169.783 33.188 170 33.3901C170.225 33.5848 170.337 33.8918 170.337 34.311C170.337 34.7228 170.225 35.0298 170 35.2319C169.783 35.4341 169.521 35.5352 169.214 35.5352C168.892 35.5352 168.622 35.4341 168.405 35.2319C168.196 35.0298 168.091 34.7228 168.091 34.311C168.091 33.8918 168.196 33.5848 168.405 33.3901C168.622 33.188 168.892 33.0869 169.214 33.0869ZM175.952 50H174.077V32.5254H175.952V50ZM187.733 32.5254V37.7476C187.733 38.047 187.725 38.3503 187.71 38.6572C187.695 38.9567 187.669 39.2337 187.632 39.4883H187.755C188.01 39.054 188.332 38.6909 188.721 38.3989C189.118 38.0994 189.567 37.8748 190.069 37.7251C190.57 37.5679 191.102 37.4893 191.664 37.4893C192.652 37.4893 193.475 37.6465 194.134 37.9609C194.801 38.2754 195.299 38.762 195.628 39.4209C195.965 40.0798 196.133 40.9333 196.133 41.9814V50H194.292V42.105C194.292 41.0793 194.056 40.3118 193.584 39.8027C193.12 39.2936 192.405 39.0391 191.439 39.0391C190.526 39.0391 189.796 39.215 189.249 39.5669C188.71 39.9113 188.321 40.4204 188.081 41.0942C187.849 41.7681 187.733 42.5916 187.733 43.5649V50H185.869V32.5254H187.733ZM204.579 37.4893C206.046 37.4893 207.135 37.8187 207.847 38.4775C208.558 39.1364 208.914 40.1883 208.914 41.6333V50H207.555L207.195 48.1807H207.105C206.761 48.6299 206.402 49.008 206.027 49.3149C205.653 49.6144 205.219 49.8428 204.725 50C204.238 50.1497 203.639 50.2246 202.928 50.2246C202.179 50.2246 201.513 50.0936 200.929 49.8315C200.352 49.5695 199.896 49.1727 199.559 48.6411C199.229 48.1095 199.064 47.4357 199.064 46.6196C199.064 45.3918 199.551 44.4484 200.524 43.7896C201.498 43.1307 202.98 42.7713 204.972 42.7114L207.094 42.6216V41.8691C207.094 40.806 206.866 40.061 206.409 39.6343C205.952 39.2075 205.309 38.9941 204.478 38.9941C203.834 38.9941 203.22 39.0877 202.636 39.2749C202.052 39.4621 201.498 39.6829 200.974 39.9375L200.401 38.5225C200.955 38.238 201.591 37.9946 202.31 37.7925C203.029 37.5903 203.785 37.4893 204.579 37.4893ZM207.072 43.9355L205.196 44.0142C203.661 44.0741 202.58 44.3249 201.951 44.7666C201.322 45.2083 201.007 45.8335 201.007 46.6421C201.007 47.3459 201.221 47.8662 201.647 48.2031C202.074 48.54 202.639 48.7085 203.343 48.7085C204.436 48.7085 205.331 48.4053 206.027 47.7988C206.724 47.1924 207.072 46.2827 207.072 45.0698V43.9355ZM220.717 46.6309C220.717 47.417 220.518 48.0796 220.122 48.6187C219.732 49.1502 219.171 49.5508 218.437 49.8203C217.711 50.0898 216.842 50.2246 215.832 50.2246C214.971 50.2246 214.226 50.1572 213.597 50.0225C212.968 49.8877 212.417 49.6968 211.946 49.4497V47.7314C212.447 47.9785 213.046 48.2031 213.743 48.4053C214.439 48.6074 215.15 48.7085 215.876 48.7085C216.94 48.7085 217.711 48.5363 218.19 48.1919C218.669 47.8475 218.909 47.3796 218.909 46.7881C218.909 46.4512 218.811 46.1554 218.617 45.9009C218.43 45.6388 218.111 45.388 217.662 45.1484C217.213 44.9014 216.591 44.6318 215.798 44.3398C215.012 44.0404 214.33 43.7446 213.754 43.4526C213.185 43.1532 212.743 42.79 212.429 42.3633C212.122 41.9365 211.968 41.3825 211.968 40.7012C211.968 39.6605 212.388 38.8631 213.226 38.3091C214.072 37.7476 215.18 37.4668 216.55 37.4668C217.292 37.4668 217.984 37.5417 218.628 37.6914C219.279 37.8337 219.886 38.0283 220.447 38.2754L219.818 39.769C219.309 39.5519 218.766 39.3685 218.19 39.2188C217.613 39.069 217.026 38.9941 216.427 38.9941C215.566 38.9941 214.903 39.1364 214.439 39.4209C213.982 39.7054 213.754 40.0947 213.754 40.5889C213.754 40.9707 213.859 41.2852 214.068 41.5322C214.285 41.7793 214.63 42.0114 215.102 42.2285C215.573 42.4456 216.195 42.7002 216.966 42.9922C217.737 43.2767 218.403 43.5724 218.965 43.8794C219.526 44.1789 219.957 44.5457 220.256 44.98C220.563 45.4067 220.717 45.957 220.717 46.6309ZM231.554 32.5254V36.894C231.554 37.3957 231.539 37.8823 231.509 38.354C231.487 38.8257 231.468 39.1925 231.453 39.4546H231.554C231.891 38.9006 232.378 38.4326 233.014 38.0508C233.651 37.6689 234.463 37.478 235.451 37.478C236.993 37.478 238.221 38.0133 239.135 39.084C240.056 40.1471 240.516 41.7306 240.516 43.8345C240.516 45.2196 240.306 46.3875 239.887 47.3384C239.468 48.2892 238.876 49.008 238.113 49.4946C237.349 49.9813 236.447 50.2246 235.406 50.2246C234.433 50.2246 233.632 50.0449 233.003 49.6855C232.382 49.3187 231.902 48.8732 231.565 48.3491H231.419L231.038 50H229.69V32.5254H231.554ZM235.148 39.0391C234.257 39.0391 233.549 39.215 233.025 39.5669C232.501 39.9113 232.123 40.4354 231.891 41.1392C231.667 41.8354 231.554 42.7189 231.554 43.7896V43.8906C231.554 45.4404 231.812 46.6271 232.329 47.4507C232.846 48.2668 233.785 48.6748 235.148 48.6748C236.293 48.6748 237.151 48.2555 237.72 47.417C238.296 46.5785 238.584 45.3805 238.584 43.8232C238.584 42.236 238.3 41.0418 237.731 40.2407C237.169 39.4396 236.308 39.0391 235.148 39.0391ZM248.512 37.4668C249.56 37.4668 250.459 37.6989 251.208 38.1631C251.956 38.6273 252.529 39.2786 252.926 40.1172C253.323 40.9482 253.521 41.9215 253.521 43.0371V44.1938H245.02C245.042 45.6388 245.401 46.7394 246.098 47.4956C246.794 48.2518 247.775 48.6299 249.04 48.6299C249.819 48.6299 250.507 48.5588 251.106 48.4165C251.705 48.2743 252.327 48.0646 252.971 47.7876V49.4272C252.349 49.7043 251.732 49.9064 251.118 50.0337C250.511 50.161 249.792 50.2246 248.961 50.2246C247.778 50.2246 246.745 49.985 245.862 49.5059C244.986 49.0192 244.305 48.3079 243.818 47.3721C243.331 46.4362 243.088 45.2907 243.088 43.9355C243.088 42.6104 243.309 41.4648 243.75 40.499C244.2 39.5257 244.829 38.777 245.637 38.2529C246.453 37.7288 247.412 37.4668 248.512 37.4668ZM248.49 38.9941C247.494 38.9941 246.7 39.3198 246.109 39.9712C245.517 40.6226 245.166 41.5322 245.053 42.7002H251.567C251.559 41.9665 251.443 41.3226 251.219 40.7686C251.002 40.207 250.668 39.7728 250.219 39.4658C249.77 39.1514 249.194 38.9941 248.49 38.9941ZM261.427 37.4668C262.475 37.4668 263.374 37.6989 264.123 38.1631C264.871 38.6273 265.444 39.2786 265.841 40.1172C266.238 40.9482 266.436 41.9215 266.436 43.0371V44.1938H257.935C257.957 45.6388 258.316 46.7394 259.013 47.4956C259.709 48.2518 260.69 48.6299 261.955 48.6299C262.734 48.6299 263.423 48.5588 264.021 48.4165C264.62 48.2743 265.242 48.0646 265.886 47.7876V49.4272C265.264 49.7043 264.647 49.9064 264.033 50.0337C263.426 50.161 262.708 50.2246 261.876 50.2246C260.694 50.2246 259.66 49.985 258.777 49.5059C257.901 49.0192 257.22 48.3079 256.733 47.3721C256.246 46.4362 256.003 45.2907 256.003 43.9355C256.003 42.6104 256.224 41.4648 256.666 40.499C257.115 39.5257 257.744 38.777 258.552 38.2529C259.368 37.7288 260.327 37.4668 261.427 37.4668ZM261.405 38.9941C260.409 38.9941 259.615 39.3198 259.024 39.9712C258.432 40.6226 258.081 41.5322 257.968 42.7002H264.482C264.474 41.9665 264.358 41.3226 264.134 40.7686C263.917 40.207 263.583 39.7728 263.134 39.4658C262.685 39.1514 262.109 38.9941 261.405 38.9941ZM275.432 37.4668C276.892 37.4668 277.996 37.8262 278.745 38.5449C279.493 39.2562 279.868 40.4017 279.868 41.9814V50H278.026V42.105C278.026 41.0793 277.79 40.3118 277.318 39.8027C276.854 39.2936 276.139 39.0391 275.173 39.0391C273.811 39.0391 272.852 39.4246 272.298 40.1958C271.744 40.967 271.467 42.0863 271.467 43.5537V50H269.603V37.6914H271.108L271.389 39.4658H271.49C271.752 39.0316 272.085 38.6685 272.489 38.3765C272.894 38.077 273.347 37.8524 273.848 37.7026C274.35 37.5454 274.878 37.4668 275.432 37.4668ZM297.646 46.6309C297.646 47.417 297.447 48.0796 297.05 48.6187C296.661 49.1502 296.099 49.5508 295.366 49.8203C294.639 50.0898 293.771 50.2246 292.76 50.2246C291.899 50.2246 291.154 50.1572 290.525 50.0225C289.896 49.8877 289.346 49.6968 288.875 49.4497V47.7314C289.376 47.9785 289.975 48.2031 290.671 48.4053C291.368 48.6074 292.079 48.7085 292.805 48.7085C293.868 48.7085 294.639 48.5363 295.119 48.1919C295.598 47.8475 295.837 47.3796 295.837 46.7881C295.837 46.4512 295.74 46.1554 295.545 45.9009C295.358 45.6388 295.04 45.388 294.591 45.1484C294.142 44.9014 293.52 44.6318 292.727 44.3398C291.94 44.0404 291.259 43.7446 290.683 43.4526C290.114 43.1532 289.672 42.79 289.357 42.3633C289.05 41.9365 288.897 41.3825 288.897 40.7012C288.897 39.6605 289.316 38.8631 290.155 38.3091C291.001 37.7476 292.109 37.4668 293.479 37.4668C294.22 37.4668 294.913 37.5417 295.557 37.6914C296.208 37.8337 296.814 38.0283 297.376 38.2754L296.747 39.769C296.238 39.5519 295.695 39.3685 295.119 39.2188C294.542 39.069 293.954 38.9941 293.355 38.9941C292.494 38.9941 291.832 39.1364 291.368 39.4209C290.911 39.7054 290.683 40.0947 290.683 40.5889C290.683 40.9707 290.787 41.2852 290.997 41.5322C291.214 41.7793 291.559 42.0114 292.03 42.2285C292.502 42.4456 293.123 42.7002 293.895 42.9922C294.666 43.2767 295.332 43.5724 295.894 43.8794C296.455 44.1789 296.886 44.5457 297.185 44.98C297.492 45.4067 297.646 45.957 297.646 46.6309ZM305.383 37.4668C306.431 37.4668 307.33 37.6989 308.079 38.1631C308.827 38.6273 309.4 39.2786 309.797 40.1172C310.194 40.9482 310.392 41.9215 310.392 43.0371V44.1938H301.891C301.913 45.6388 302.272 46.7394 302.969 47.4956C303.665 48.2518 304.646 48.6299 305.911 48.6299C306.69 48.6299 307.379 48.5588 307.978 48.4165C308.576 48.2743 309.198 48.0646 309.842 47.7876V49.4272C309.22 49.7043 308.603 49.9064 307.989 50.0337C307.382 50.161 306.664 50.2246 305.833 50.2246C304.65 50.2246 303.616 49.985 302.733 49.5059C301.857 49.0192 301.176 48.3079 300.689 47.3721C300.202 46.4362 299.959 45.2907 299.959 43.9355C299.959 42.6104 300.18 41.4648 300.622 40.499C301.071 39.5257 301.7 38.777 302.508 38.2529C303.324 37.7288 304.283 37.4668 305.383 37.4668ZM305.361 38.9941C304.365 38.9941 303.571 39.3198 302.98 39.9712C302.389 40.6226 302.037 41.5322 301.924 42.7002H308.438C308.431 41.9665 308.314 41.3226 308.09 40.7686C307.873 40.207 307.54 39.7728 307.09 39.4658C306.641 39.1514 306.065 38.9941 305.361 38.9941ZM319.388 37.4668C320.848 37.4668 321.952 37.8262 322.701 38.5449C323.449 39.2562 323.824 40.4017 323.824 41.9814V50H321.982V42.105C321.982 41.0793 321.746 40.3118 321.274 39.8027C320.81 39.2936 320.095 39.0391 319.129 39.0391C317.767 39.0391 316.808 39.4246 316.254 40.1958C315.7 40.967 315.423 42.0863 315.423 43.5537V50H313.559V37.6914H315.064L315.345 39.4658H315.446C315.708 39.0316 316.041 38.6685 316.445 38.3765C316.85 38.077 317.303 37.8524 317.804 37.7026C318.306 37.5454 318.834 37.4668 319.388 37.4668ZM331.64 48.6973C331.947 48.6973 332.262 48.6711 332.583 48.6187C332.905 48.5662 333.167 48.5026 333.37 48.4277V49.8765C333.153 49.9738 332.849 50.0562 332.46 50.1235C332.078 50.1909 331.704 50.2246 331.337 50.2246C330.686 50.2246 330.094 50.1123 329.562 49.8877C329.031 49.6556 328.604 49.2663 328.282 48.7197C327.968 48.1732 327.811 47.417 327.811 46.4512V39.1514H326.059V38.2417L327.822 37.5117L328.563 34.8389H329.686V37.6914H333.291V39.1514H329.686V46.395C329.686 47.1662 329.862 47.7427 330.214 48.1245C330.573 48.5063 331.049 48.6973 331.64 48.6973ZM345.813 48.6973C346.12 48.6973 346.434 48.6711 346.756 48.6187C347.078 48.5662 347.34 48.5026 347.542 48.4277V49.8765C347.325 49.9738 347.022 50.0562 346.633 50.1235C346.251 50.1909 345.877 50.2246 345.51 50.2246C344.858 50.2246 344.267 50.1123 343.735 49.8877C343.204 49.6556 342.777 49.2663 342.455 48.7197C342.141 48.1732 341.983 47.417 341.983 46.4512V39.1514H340.231V38.2417L341.995 37.5117L342.736 34.8389H343.859V37.6914H347.464V39.1514H343.859V46.395C343.859 47.1662 344.035 47.7427 344.387 48.1245C344.746 48.5063 345.222 48.6973 345.813 48.6973ZM360.648 43.8232C360.648 44.834 360.517 45.7362 360.255 46.5298C359.993 47.3234 359.615 47.9935 359.121 48.54C358.627 49.0866 358.028 49.5059 357.324 49.7979C356.628 50.0824 355.838 50.2246 354.955 50.2246C354.131 50.2246 353.375 50.0824 352.686 49.7979C352.005 49.5059 351.413 49.0866 350.912 48.54C350.417 47.9935 350.032 47.3234 349.755 46.5298C349.485 45.7362 349.351 44.834 349.351 43.8232C349.351 42.4756 349.579 41.3301 350.036 40.3867C350.492 39.4359 351.144 38.7134 351.99 38.2192C352.843 37.7176 353.858 37.4668 355.033 37.4668C356.156 37.4668 357.137 37.7176 357.976 38.2192C358.822 38.7209 359.477 39.4471 359.941 40.3979C360.413 41.3413 360.648 42.4831 360.648 43.8232ZM351.282 43.8232C351.282 44.8115 351.413 45.6688 351.675 46.395C351.937 47.1213 352.342 47.6828 352.888 48.0796C353.435 48.4764 354.139 48.6748 355 48.6748C355.853 48.6748 356.553 48.4764 357.1 48.0796C357.654 47.6828 358.062 47.1213 358.324 46.395C358.586 45.6688 358.717 44.8115 358.717 43.8232C358.717 42.8424 358.586 41.9964 358.324 41.2852C358.062 40.5664 357.657 40.0124 357.111 39.623C356.564 39.2337 355.857 39.0391 354.988 39.0391C353.708 39.0391 352.768 39.4621 352.169 40.3081C351.578 41.1541 351.282 42.3258 351.282 43.8232ZM367.903 37.6914H369.902L372.62 44.834C372.777 45.2533 372.923 45.6576 373.058 46.0469C373.193 46.4287 373.313 46.7956 373.417 47.1475C373.522 47.4993 373.605 47.84 373.665 48.1694H373.743C373.848 47.7951 373.998 47.3047 374.192 46.6982C374.387 46.0843 374.597 45.4591 374.821 44.8228L377.393 37.6914H379.403L374.046 51.8081C373.762 52.5643 373.429 53.2231 373.047 53.7847C372.673 54.3462 372.216 54.7767 371.677 55.0762C371.138 55.3831 370.486 55.5366 369.723 55.5366C369.371 55.5366 369.06 55.5142 368.791 55.4692C368.521 55.4318 368.289 55.3869 368.094 55.3345V53.8408C368.259 53.8783 368.457 53.9119 368.689 53.9419C368.929 53.9718 369.176 53.9868 369.431 53.9868C369.895 53.9868 370.295 53.897 370.632 53.7173C370.977 53.5451 371.272 53.2905 371.52 52.9536C371.767 52.6167 371.98 52.2161 372.16 51.752L372.833 50.0225L367.903 37.6914ZM391.981 43.8232C391.981 44.834 391.85 45.7362 391.588 46.5298C391.326 47.3234 390.948 47.9935 390.454 48.54C389.96 49.0866 389.361 49.5059 388.657 49.7979C387.961 50.0824 387.171 50.2246 386.288 50.2246C385.464 50.2246 384.708 50.0824 384.019 49.7979C383.338 49.5059 382.746 49.0866 382.245 48.54C381.75 47.9935 381.365 47.3234 381.088 46.5298C380.818 45.7362 380.684 44.834 380.684 43.8232C380.684 42.4756 380.912 41.3301 381.369 40.3867C381.825 39.4359 382.477 38.7134 383.323 38.2192C384.176 37.7176 385.191 37.4668 386.366 37.4668C387.489 37.4668 388.47 37.7176 389.309 38.2192C390.155 38.7209 390.81 39.4471 391.274 40.3979C391.746 41.3413 391.981 42.4831 391.981 43.8232ZM382.615 43.8232C382.615 44.8115 382.746 45.6688 383.008 46.395C383.27 47.1213 383.675 47.6828 384.221 48.0796C384.768 48.4764 385.472 48.6748 386.333 48.6748C387.186 48.6748 387.886 48.4764 388.433 48.0796C388.987 47.6828 389.395 47.1213 389.657 46.395C389.919 45.6688 390.05 44.8115 390.05 43.8232C390.05 42.8424 389.919 41.9964 389.657 41.2852C389.395 40.5664 388.99 40.0124 388.444 39.623C387.897 39.2337 387.19 39.0391 386.321 39.0391C385.041 39.0391 384.101 39.4621 383.502 40.3081C382.911 41.1541 382.615 42.3258 382.615 43.8232ZM405.368 37.6914V50H403.841L403.571 48.2705H403.47C403.216 48.6973 402.886 49.0566 402.482 49.3486C402.078 49.6406 401.621 49.8577 401.112 50C400.61 50.1497 400.075 50.2246 399.506 50.2246C398.533 50.2246 397.716 50.0674 397.058 49.7529C396.399 49.4385 395.901 48.9518 395.564 48.293C395.235 47.6341 395.07 46.7881 395.07 45.7549V37.6914H396.957V45.6201C396.957 46.6458 397.189 47.4132 397.653 47.9224C398.117 48.424 398.825 48.6748 399.775 48.6748C400.689 48.6748 401.415 48.5026 401.954 48.1582C402.501 47.8138 402.894 47.3084 403.133 46.6421C403.373 45.9683 403.493 45.1447 403.493 44.1714V37.6914H405.368Z" fill="white"/>
</g>
</g>
<defs>
<filter id="filter0_d_10119_3717" x="0" y="0" width="432" height="82" filterUnits="userSpaceOnUse" color-interpolation-filters="sRGB">
<feFlood flood-opacity="0" result="BackgroundImageFix"/>
<feColorMatrix in="SourceAlpha" type="matrix" values="0 0 0 0 0 0 0 0 0 0 0 0 0 0 0 0 0 0 127 0" result="hardAlpha"/>
<feOffset/>
<feGaussianBlur stdDeviation="2"/>
<feColorMatrix type="matrix" values="0 0 0 0 0 0 0 0 0 0 0 0 0 0 0 0 0 0 0.1 0"/>
<feBlend mode="normal" in2="BackgroundImageFix" result="effect1_dropShadow_10119_3717"/>
<feBlend mode="normal" in="SourceGraphic" in2="effect1_dropShadow_10119_3717" result="shape"/>
</filter>
<filter id="filter1_d_10119_3717" x="0" y="0" width="432" height="82" filterUnits="userSpaceOnUse" color-interpolation-filters="sRGB">
<feFlood flood-opacity="0" result="BackgroundImageFix"/>
<feColorMatrix in="SourceAlpha" type="matrix" values="0 0 0 0 0 0 0 0 0 0 0 0 0 0 0 0 0 0 127 0" result="hardAlpha"/>
<feOffset/>
<feGaussianBlur stdDeviation="2"/>
<feComposite in2="hardAlpha" operator="out"/>
<feColorMatrix type="matrix" values="0 0 0 0 0 0 0 0 0 0 0 0 0 0 0 0 0 0 0.15 0"/>
<feBlend mode="normal" in2="BackgroundImageFix" result="effect1_dropShadow_10119_3717"/>
<feBlend mode="normal" in="SourceGraphic" in2="effect1_dropShadow_10119_3717" result="shape"/>
</filter>
<clipPath id="clip0_10119_3717">
<rect width="41" height="41" fill="white" transform="translate(24 20.5)"/>
</clipPath>
</defs>
</svg>
