<?xml version="1.0" encoding="UTF-8" standalone="no"?>
<!DOCTYPE svg PUBLIC "-//W3C//DTD SVG 1.1//EN" "http://www.w3.org/Graphics/SVG/1.1/DTD/svg11.dtd">
<!-- Created with Vectornator (http://vectornator.io/) -->
<svg height="100%" stroke-miterlimit="10" style="fill-rule:nonzero;clip-rule:evenodd;stroke-linecap:round;stroke-linejoin:round;" version="1.1" viewBox="0 0 16 16" width="100%" xml:space="preserve" xmlns="http://www.w3.org/2000/svg" xmlns:vectornator="http://vectornator.io" xmlns:xlink="http://www.w3.org/1999/xlink">
<defs/>
<clipPath id="ArtboardFrame">
<rect height="16" width="16" x="0" y="0"/>
</clipPath>
<g clip-path="url(#ArtboardFrame)" id="Untitled" vectornator:layerName="Untitled">
<path d="M6.5 1L9.5 1C9.77614 1 10 1.22386 10 1.5L10 2.5L6 2.5L6 1.5C6 1.22386 6.22386 1 6.5 1ZM11 2.5L11 1.5C11 0.671573 10.3284-8.09152e-08 9.5-4.47035e-08L6.5-4.47035e-08C5.67157-5.51353e-08 5 0.671573 5 1.5L5 2.5L2.506 2.5C2.50267 2.49997 2.49933 2.49997 2.496 2.5L1.5 2.5C1.22386 2.5 1 2.72386 1 3C1 3.27614 1.22386 3.5 1.5 3.5L2.038 3.5L2.891 14.16C2.97441 15.1993 3.84232 16.0002 4.885 16L11.115 16C12.1577 16.0002 13.0256 15.1993 13.109 14.16L13.962 3.5L14.5 3.5C14.7761 3.5 15 3.27614 15 3C15 2.72386 14.7761 2.5 14.5 2.5L13.505 2.5C13.5017 2.49997 13.4983 2.49997 13.495 2.5L11 2.5ZM12.958 3.5L12.112 14.08C12.0703 14.5997 11.6363 15.0001 11.115 15L4.885 15C4.36366 15.0001 3.92971 14.5997 3.888 14.08L3.042 3.5L12.958 3.5ZM5.471 4.5C5.74656 4.48407 5.9829 4.69445 5.999 4.97L6.499 13.47C6.50993 13.742 6.30118 13.9728 6.02941 13.9892C5.75763 14.0055 5.52274 13.8014 5.501 13.53L5 5.03C4.9918 4.89733 5.03676 4.76686 5.12495 4.66741C5.21314 4.56796 5.3373 4.50772 5.47 4.5L5.471 4.5ZM10.529 4.5C10.6617 4.50772 10.7859 4.56796 10.874 4.66741C10.9622 4.76686 11.0072 4.89733 10.999 5.03L10.499 13.53C10.4917 13.7109 10.3873 13.8737 10.2259 13.9557C10.0646 14.0377 9.87148 14.0261 9.72111 13.9253C9.57073 13.8246 9.48654 13.6504 9.501 13.47L10.001 4.97C10.0171 4.69445 10.2534 4.48407 10.529 4.5ZM8 4.5C8.27614 4.5 8.5 4.72386 8.5 5L8.5 13.5C8.5 13.7761 8.27614 14 8 14C7.72386 14 7.5 13.7761 7.5 13.5L7.5 5C7.5 4.72386 7.72386 4.5 8 4.5Z" fill="#101010" fill-rule="nonzero" opacity="1" stroke="none"/>
</g>
</svg>
